<svg width="240" height="240" viewBox="0 0 240 240" xmlns="http://www.w3.org/2000/svg">
  <rect x="0" y="0" width="240" height="240" rx="48" fill="#020617" />
  <rect x="120" y="40" width="2" height="160" fill="#0F172A" />
  <path d="M42 66 H102 V84 H66 V100 H93 V118 H66 V166 H42 Z" fill="#22C55E" />
  <path
    d="M170 70 C150 70 140 80 140 92 C140 104 150 112 164 112 C176 112 182 118 182 126 C182 138 172 146 156 146 C148 146 142 148 138 150 V166 C146 162 154 160 162 160 C184 160 198 148 198 130 C198 114 188 104 172 100 C160 96 154 92 154 86 C154 80 160 76 172 76 C180 76 188 78 196 82 V66 C188 70 180 72 170 70 Z"
    fill="#4ADE80"
  />
</svg>
