<svg width="512" height="512" viewBox="0 0 512 512" xmlns="http://www.w3.org/2000/svg">
  <rect x="32" y="32" width="448" height="448" rx="96" fill="#020617" />

  <rect x="128" y="120" width="256" height="240" rx="24" fill="#F9FAFB" />

  <path
    d="M128 360 L144 384 L160 360 L176 384 L192 360 L208 384 L224 360 L240 384 L256 360 L272 384 L288 360 L304 384 L320 360 L336 384 L352 360 L368 384 L384 360"
    fill="#F9FAFB"
  />

  <line
    x1="256"
    y1="140"
    x2="256"
    y2="340"
    stroke="#CBD5F5"
    stroke-width="6"
  />

  <circle cx="192" cy="180" r="26" fill="#22C55E" />
  <circle cx="192" cy="180" r="12" fill="#F9FAFB" />

  <circle cx="320" cy="180" r="26" fill="#0EA5E9" />
  <circle cx="320" cy="180" r="12" fill="#F9FAFB" />

  <g stroke="#9CA3AF" stroke-width="4" stroke-linecap="round">
    <line x1="168" y1="220" x2="232" y2="220" />
    <line x1="168" y1="244" x2="232" y2="244" />
    <line x1="168" y1="268" x2="220" y2="268" />
  </g>

  <g stroke="#9CA3AF" stroke-width="4" stroke-linecap="round">
    <line x1="280" y1="220" x2="344" y2="220" />
    <line x1="280" y1="244" x2="344" y2="244" />
    <line x1="292" y1="268" x2="344" y2="268" />
  </g>

  <path
    d="M236 310 L248 324 L276 296"
    stroke="#22C55E"
    stroke-width="6"
    stroke-linecap="round"
    fill="none"
  />
</svg>
